HIERARCHY
ROOT Hips
{
	OFFSET -0.001795 -0.223333 0.028219
	CHANNELS 6 Xposition Yposition Zposition Zrotation Yrotation Xrotation 
	JOINT LeftUpLeg
	{
		OFFSET 0.069520 -0.091406 -0.006815
		CHANNELS 3 Zrotation Yrotation Xrotation
		JOINT LeftLeg
		{
			OFFSET 0.034277 -0.375199 -0.004496
			CHANNELS 3 Zrotation Yrotation Xrotation
			JOINT LeftFoot
			{
				OFFSET -0.013596 -0.397961 -0.043693
				CHANNELS 3 Zrotation Yrotation Xrotation
				JOINT LeftToe
				{
					OFFSET 0.026358 -0.055791 0.119288
					CHANNELS 3 Zrotation Yrotation Xrotation
					End Site
					{
						OFFSET 0.000000 0.000000 0.000000
					}
				}
			}
		}
	}
	JOINT RightUpLeg
	{
		OFFSET -0.067670 -0.090522 -0.004320
		CHANNELS 3 Zrotation Yrotation Xrotation
		JOINT RightLeg
		{
			OFFSET -0.038290 -0.382569 -0.008850
			CHANNELS 3 Zrotation Yrotation Xrotation
			JOINT RightFoot
			{
				OFFSET 0.015774 -0.398415 -0.042312
				CHANNELS 3 Zrotation Yrotation Xrotation
				JOINT RightToe
				{
					OFFSET -0.025372 -0.048144 0.123348
					CHANNELS 3 Zrotation Yrotation Xrotation
					End Site
					{
						OFFSET 0.000000 0.000000 0.000000
					}
				}
			}
		}
	}
	JOINT Spine
	{
		OFFSET -0.002533 0.108963 -0.026696
		CHANNELS 3 Zrotation Yrotation Xrotation
		JOINT Spine1
		{
			OFFSET 0.005487 0.135180 0.001092
			CHANNELS 3 Zrotation Yrotation Xrotation
			JOINT Spine2
			{
				OFFSET 0.001457 0.052922 0.025425
				CHANNELS 3 Zrotation Yrotation Xrotation
				JOINT Neck
				{
					OFFSET -0.002778 0.213870 -0.042857
					CHANNELS 3 Zrotation Yrotation Xrotation
					JOINT Head
					{
						OFFSET 0.005152 0.064970 0.051349
						CHANNELS 3 Zrotation Yrotation Xrotation
						End Site
						{
							OFFSET 0.000000 0.000000 0.000000
						}
					}
				}
				JOINT LeftShoulder
				{
					OFFSET 0.078845 0.121749 -0.034090
					CHANNELS 3 Zrotation Yrotation Xrotation
					JOINT LeftArm
					{
						OFFSET 0.090977 0.030469 -0.008868
						CHANNELS 3 Zrotation Yrotation Xrotation
						JOINT LeftForeArm
						{
							OFFSET 0.259612 -0.012772 -0.027456
							CHANNELS 3 Zrotation Yrotation Xrotation
							JOINT LeftHand
							{
								OFFSET 0.249234 0.008986 -0.001171
								CHANNELS 3 Zrotation Yrotation Xrotation
								End Site
								{
									OFFSET 0.000000 0.000000 0.000000
								}
							}
						}
					}
				}
				JOINT RightShoulder
				{
					OFFSET -0.081759 0.118833 -0.038615
					CHANNELS 3 Zrotation Yrotation Xrotation
					JOINT RightArm
					{
						OFFSET -0.096012 0.032551 -0.009143
						CHANNELS 3 Zrotation Yrotation Xrotation
						JOINT RightForeArm
						{
							OFFSET -0.253742 -0.013329 -0.021401
							CHANNELS 3 Zrotation Yrotation Xrotation
							JOINT RightHand
							{
								OFFSET -0.255298 0.007772 -0.005559
								CHANNELS 3 Zrotation Yrotation Xrotation
								End Site
								{
									OFFSET 0.000000 0.000000 0.000000
								}
							}
						}
					}
				}
			}
		}
	}
}
MOTION
Frames: 13
Frame Time: 0.050000
0.000000 0.920965 0.000000 -1.405010 3.094263 0.412211 10.282846 -0.228737 -5.286985 -6.664127 0.827135 7.112461 5.759033 12.030326 0.607685 0.000000 0.000000 0.000000 -7.557801 0.316101 -5.688269 5.397076 -0.791119 12.815397 -5.821286 -14.348050 -2.407294 0.000000 0.000000 0.000000 -0.345804 -0.840892 19.095605 3.579298 -0.266108 -22.942127 0.152186 0.648511 24.811210 -0.245675 2.318091 -30.230535 0.000000 0.000000 0.000000 -31.090880 -3.824923 -0.653340 -40.323594 -12.567066 -2.334184 -17.168243 -28.838930 5.658396 0.000000 0.000000 0.000000 22.643883 7.408799 3.788177 47.314623 9.993283 -3.102197 7.863153 25.897582 2.825354 0.000000 0.000000 0.000000 
0.022954 0.922149 -0.000194 -1.617422 2.925464 0.229943 9.155794 -0.222731 -3.376073 -7.532428 0.914962 5.035538 6.538972 13.605839 0.903548 0.000000 0.000000 0.000000 -8.699963 0.317856 -7.623766 6.525168 -1.127175 15.665330 -6.172108 -15.377359 -0.518333 0.000000 0.000000 0.000000 -0.403504 -0.916004 20.846317 3.585655 -0.247896 -23.417151 0.368057 0.746043 23.665911 -0.521927 2.509083 -31.471723 0.000000 0.000000 0.000000 -30.673607 -2.709847 -1.410801 -40.970233 -14.081565 -1.796171 -19.403878 -28.217732 6.099003 0.000000 0.000000 0.000000 21.823274 7.400666 3.697132 49.107164 10.296424 -2.924639 7.582546 26.612412 2.875175 0.000000 0.000000 0.000000 
0.042678 0.923383 -0.000344 -1.637194 4.158192 -1.428785 8.712947 -0.196908 -1.971372 -8.379460 1.018652 5.416797 6.522796 13.447719 0.595298 0.000000 0.000000 0.000000 -8.987384 0.265911 -9.715004 7.307961 -1.748622 23.556842 -7.670787 -18.951780 1.846973 0.000000 0.000000 0.000000 -1.279591 -0.898520 22.839856 4.707741 -0.461256 -24.390718 -0.408747 -0.592018 24.886814 -1.901812 3.155379 -33.390455 0.000000 0.000000 0.000000 -30.495444 -3.327937 -0.622180 -40.065075 -16.163545 -1.347717 -19.808647 -31.128537 6.938639 0.000000 0.000000 0.000000 20.507347 8.060625 3.842509 49.866716 10.559166 -2.886813 7.138979 30.024965 3.192988 0.000000 0.000000 0.000000 
0.057161 0.925920 0.001424 -1.989418 3.634677 -2.853181 8.384675 -0.126826 -0.192732 -8.515755 1.046511 5.151932 5.884476 11.961696 -0.457876 0.000000 0.000000 0.000000 -8.900909 0.277051 -11.042217 8.071180 -2.128393 26.725153 -8.580939 -20.928952 2.030791 0.000000 0.000000 0.000000 -2.359778 -0.746557 24.944239 5.183373 -0.541063 -25.322166 0.357741 -2.070507 25.063780 -3.106219 3.479238 -34.282415 0.000000 0.000000 0.000000 -30.952883 -2.782189 -0.226996 -39.365788 -17.296501 -1.249220 -21.136996 -35.095545 8.488281 0.000000 0.000000 0.000000 19.214911 9.436138 4.036260 49.300783 9.240130 -3.303851 9.001898 35.165440 4.299683 0.000000 0.000000 0.000000 
0.067297 0.929169 0.005055 -2.623044 4.267940 -3.984448 7.763197 -0.062904 2.370742 -7.779557 0.871405 3.264188 5.344929 11.043584 0.336092 0.000000 0.000000 0.000000 -7.192970 0.443894 -12.480213 9.472938 -2.666133 25.901762 -10.223458 -24.287000 3.547047 0.000000 0.000000 0.000000 -2.424474 -0.840915 26.203260 5.763648 -0.699308 -25.154779 0.040640 -3.111803 24.832743 -3.733705 3.686401 -34.827480 0.000000 0.000000 0.000000 -30.799040 -3.620486 0.639030 -39.088586 -18.046279 -1.081771 -20.677769 -41.156861 10.014185 0.000000 0.000000 0.000000 16.974501 8.684609 3.387392 50.530350 8.489222 -3.587742 12.196847 40.145506 6.139954 0.000000 0.000000 0.000000 
0.073788 0.930798 0.009956 -2.747478 3.469344 -4.397612 7.647401 0.006910 4.594973 -7.905745 0.842555 1.280404 5.446936 11.131999 -0.199870 0.000000 0.000000 0.000000 -4.853689 0.812258 -14.445002 9.203830 -2.399803 24.506033 -9.184560 -22.162222 2.364834 0.000000 0.000000 0.000000 -2.850739 -0.730603 27.138500 6.124840 -0.723278 -26.207139 -0.202750 -3.849947 25.145346 -2.950740 3.124107 -34.636680 0.000000 0.000000 0.000000 -29.821415 -3.277238 0.967968 -40.397039 -19.088698 -0.922188 -20.588595 -46.997344 11.854067 0.000000 0.000000 0.000000 16.043285 8.663496 3.105523 50.549875 8.043225 -3.788108 15.444299 45.249450 8.287976 0.000000 0.000000 0.000000 
0.077203 0.931117 0.016330 -3.098666 2.795337 -4.101617 7.299611 0.051202 5.387065 -7.171077 0.754132 0.559550 5.099970 10.245384 -1.002605 0.000000 0.000000 0.000000 -2.006631 1.233121 -15.130981 9.108397 -2.010730 19.346501 -8.824472 -21.353644 2.800531 0.000000 0.000000 0.000000 -2.598246 -0.740004 26.946846 6.292965 -0.829291 -25.380302 -0.884280 -4.057848 23.458510 -2.761372 2.924448 -32.998479 0.000000 0.000000 0.000000 -28.525667 -2.945973 0.878559 -40.973231 -19.565190 -0.610758 -22.351609 -51.998422 14.289216 0.000000 0.000000 0.000000 16.251747 8.730437 2.963639 51.659484 8.114310 -3.605945 16.397021 47.973281 9.201211 0.000000 0.000000 0.000000 
0.078524 0.929984 0.024855 -2.926290 2.306248 -4.250976 6.316239 0.166178 6.818189 -6.712101 0.692104 -0.392845 5.668477 11.334173 -1.415485 0.000000 0.000000 0.000000 0.041119 1.490596 -15.041529 9.108890 -1.799037 15.999012 -8.927937 -21.481750 4.367631 0.000000 0.000000 0.000000 -2.663565 -0.697308 27.191581 6.262945 -0.810283 -25.668901 -1.209567 -3.632414 23.360517 -2.145972 2.608462 -31.642028 0.000000 0.000000 0.000000 -27.940720 -4.032385 1.533109 -40.848670 -20.474244 -0.291309 -23.490188 -54.652327 15.742879 0.000000 0.000000 0.000000 17.434009 8.691178 2.972982 50.620727 8.255961 -3.489577 17.375820 50.200880 10.197272 0.000000 0.000000 0.000000 
0.079394 0.928560 0.035689 -2.585147 2.501548 -4.322868 5.217058 0.282998 7.940231 -6.422769 0.645209 -1.127290 5.926769 11.899136 -1.222399 0.000000 0.000000 0.000000 1.416737 1.529551 -13.843716 7.485268 -1.286785 13.339370 -8.691699 -20.921583 6.001695 0.000000 0.000000 0.000000 -2.661451 -0.694879 26.903670 5.860348 -0.697917 -25.815657 -1.579573 -4.061912 23.154547 -1.760113 2.321465 -30.460976 0.000000 0.000000 0.000000 -27.726847 -4.532797 1.958820 -40.150517 -22.089397 0.199369 -24.019810 -54.762920 16.061534 0.000000 0.000000 0.000000 17.834381 8.733741 2.901020 50.803659 6.979261 -3.973330 17.419597 52.379034 10.690883 0.000000 0.000000 0.000000 
0.080580 0.927410 0.047687 -2.810708 2.549261 -4.502077 4.797511 0.366206 9.161708 -6.647371 0.664549 -1.169329 6.363444 12.663316 -1.778436 0.000000 0.000000 0.000000 2.454748 1.571597 -13.185434 6.735592 -1.065044 11.661840 -9.192326 -21.738059 8.890013 0.000000 0.000000 0.000000 -2.458524 -0.730670 26.367126 5.960395 -0.735003 -25.648280 -1.576205 -3.960091 23.314979 -1.601649 2.253255 -30.255257 0.000000 0.000000 0.000000 -28.076320 -5.337387 2.439800 -40.014501 -23.624238 0.690009 -24.095877 -54.729509 16.077883 0.000000 0.000000 0.000000 17.471895 8.747300 2.949965 50.393929 6.304935 -4.233318 18.434136 53.875618 11.598450 0.000000 0.000000 0.000000 
0.081991 0.927928 0.060399 -2.837983 2.294255 -4.392637 4.318731 0.445116 9.852356 -6.018470 0.614977 -0.909303 6.503282 12.924450 -2.001904 0.000000 0.000000 0.000000 2.776679 1.510896 -12.388439 6.633094 -1.001075 10.434607 -9.665292 -22.532291 10.383322 0.000000 0.000000 0.000000 -1.689666 -0.861704 25.701037 5.939038 -0.753021 -25.385947 -1.947081 -4.024311 23.465328 -1.386017 2.134760 -30.799442 0.000000 0.000000 0.000000 -27.930524 -6.465009 3.243872 -40.146680 -24.637835 1.003992 -21.735965 -53.849648 14.543443 0.000000 0.000000 0.000000 16.831784 9.268959 3.189451 49.582784 6.369649 -4.152808 18.672134 53.480066 11.543272 0.000000 0.000000 0.000000 
0.083164 0.929152 0.073393 -2.834159 2.270703 -3.838408 3.979956 0.471221 9.831599 -5.475260 0.569910 -0.364011 6.588325 13.131838 -1.858799 0.000000 0.000000 0.000000 2.807266 1.526799 -12.524768 6.973927 -1.061074 10.133399 -10.375181 -23.747098 11.156931 0.000000 0.000000 0.000000 -0.727033 -1.032962 24.887927 5.920257 -0.733847 -25.495008 -2.463540 -4.450426 23.502756 -1.727178 2.221750 -30.111622 0.000000 0.000000 0.000000 -28.277901 -7.707977 4.226302 -40.640804 -25.041114 1.133654 -19.579763 -52.795063 13.171957 0.000000 0.000000 0.000000 16.244405 9.504636 3.222620 48.511252 6.333089 -4.057669 19.794083 51.637564 11.466552 0.000000 0.000000 0.000000 
0.083711 0.929510 0.086939 -3.056020 1.962049 -3.676146 3.703748 0.557377 10.885757 -4.787348 0.504781 -0.251911 6.738831 13.433381 -2.031694 0.000000 0.000000 0.000000 3.326581 1.554845 -12.329558 7.176006 -1.088678 10.000019 -10.406645 -23.792920 11.491818 0.000000 0.000000 0.000000 0.125875 -1.180275 24.476794 5.952185 -0.775723 -25.058459 -2.835006 -4.798333 23.143379 -2.156804 2.366704 -29.823223 0.000000 0.000000 0.000000 -28.354771 -8.640501 5.006359 -41.022184 -25.496845 1.313910 -18.608723 -51.257644 12.283610 0.000000 0.000000 0.000000 15.624010 10.067659 3.387684 47.819243 6.674952 -3.809681 19.644197 49.764600 10.751796 0.000000 0.000000 0.000000 
